<svg width="32" height="32" viewBox="0 0 32 32" fill="none" xmlns="http://www.w3.org/2000/svg">
<path fill-rule="evenodd" clip-rule="evenodd" d="M17.414 3.0145C16.633 2.23345 15.3666 2.23345 14.5856 3.0145L3.01401 14.5861C2.23296 15.3671 2.23296 16.6334 3.01401 17.4145L14.5856 28.9861C15.3666 29.7671 16.633 29.7671 17.414 28.9861L28.9856 17.4145C29.7666 16.6334 29.7666 15.3671 28.9856 14.5861L17.414 3.0145ZM17.5998 9.60018C17.5998 10.4838 16.8834 11.2002 15.9998 11.2002C15.1161 11.2002 14.3998 10.4838 14.3998 9.60018C14.3998 8.71652 15.1161 8.00018 15.9998 8.00018C16.8834 8.00018 17.5998 8.71652 17.5998 9.60018ZM14.3998 14.4002C14.3998 13.5165 15.1161 12.8002 15.9998 12.8002C16.8834 12.8002 17.5998 13.5165 17.5998 14.4002V22.4002C17.5998 23.2838 16.8834 24.0002 15.9998 24.0002C15.1161 24.0002 14.3998 23.2838 14.3998 22.4002V14.4002Z" fill="#FABE0A"/>
</svg>
